P3
10 25
255
50 180 230
50 180 230
50 180 230
50 180 230
50 180 230
50 180 230
50 180 230
50 180 230
50 180 230
50 180 230
255 255 255
255 255 255
255 255 255
255 255 255
255 255 255
255 255 255
255 255 255
255 255 255
255 255 255
255 255 255
50 180 230
50 180 230
50 180 230
50 180 230
50 180 230
50 180 230
50 180 230
50 180 230
50 180 230
50 180 230
255 255 255
255 255 255
255 255 255
255 255 255
255 255 255
255 255 255
255 255 255
255 255 255
255 255 255
255 255 255
50 180 230
50 180 230
50 180 230
50 180 230
50 180 230
50 180 230
50 180 230
50 180 230
50 180 230
50 180 230
255 255 255
255 255 255
255 255 255
255 255 255
255 255 255
255 255 255
255 255 255
255 255 255
255 255 255
255 255 255
50 180 230
50 180 230
50 180 230
50 180 230
50 180 230
50 180 230
50 180 230
50 180 230
50 180 230
50 180 230
255 255 255
255 255 255
255 255 255
255 255 255
255 255 255
255 255 255
255 255 255
255 255 255
255 255 255
255 255 255
50 180 230
50 180 230
50 180 230
50 180 230
50 180 230
50 180 230
50 180 230
50 180 230
50 180 230
50 180 230
255 255 255
255 255 255
255 255 255
255 255 255
255 255 255
255 255 255
255 255 255
255 255 255
255 255 255
255 255 255
50 180 230
50 180 230
50 180 230
50 180 230
50 180 230
50 180 230
50 180 230
50 180 230
50 180 230
50 180 230
255 255 255
255 255 255
255 255 255
255 255 255
255 255 255
255 255 255
255 255 255
255 255 255
255 255 255
255 255 255
50 180 230
50 180 230
50 180 230
50 180 230
50 180 230
50 180 230
50 180 230
50 180 230
50 180 230
50 180 230
255 255 255
255 255 255
255 255 255
255 255 255
255 255 255
255 255 255
255 255 255
255 255 255
255 255 255
255 255 255
50 180 230
50 180 230
50 180 230
50 180 230
50 180 230
50 180 230
50 180 230
50 180 230
50 180 230
50 180 230
255 255 255
255 255 255
255 255 255
255 255 255
255 255 255
255 255 255
255 255 255
255 255 255
255 255 255
255 255 255
50 180 230
50 180 230
50 180 230
50 180 230
50 180 230
50 180 230
50 180 230
50 180 230
50 180 230
50 180 230
255 255 255
255 255 255
255 255 255
255 255 255
255 255 255
255 255 255
255 255 255
255 255 255
255 255 255
255 255 255
50 180 230
50 180 230
50 180 230
50 180 230
50 180 230
50 180 230
50 180 230
50 180 230
50 180 230
50 180 230
255 255 255
255 255 255
255 255 255
255 255 255
255 255 255
255 255 255
255 255 255
255 255 255
255 255 255
255 255 255
50 180 230
50 180 230
50 180 230
50 180 230
50 180 230
50 180 230
50 180 230
50 180 230
50 180 230
50 180 230
255 255 255
255 255 255
255 255 255
255 255 255
255 255 255
255 255 255
255 255 255
255 255 255
255 255 255
255 255 255
50 180 230
50 180 230
50 180 230
50 180 230
50 180 230
50 180 230
50 180 230
50 180 230
50 180 230
50 180 230
255 255 255
255 255 255
255 255 255
255 255 255
255 255 255
255 255 255
255 255 255
255 255 255
255 255 255
255 255 255
50 180 230
50 180 230
50 180 230
50 180 230
50 180 230
50 180 230
50 180 230
50 180 230
50 180 230
50 180 230
